# Blender v2.76 (sub 0) OBJ File: ''
# www.blender.org
mtllib fullChambre2.mtl
o Plane.005_Plane.006
v -6.285323 -2.920951 4.367621
v 1.714677 -2.920951 4.367621
v -6.285323 -2.920951 -3.632379
v 1.714677 -2.920951 -3.632379
vt -0.634990 1.634990
vt -0.634990 -0.634990
vt 1.634990 -0.634990
vt 1.634990 1.634990
vn 0.000000 1.000000 0.000000
usemtl None
s off
f 2/1/1 4/2/1 3/3/1
f 1/4/1 2/1/1 3/3/1
o Plane.004_Plane.005
v -6.285323 4.336310 4.367621
v 1.714677 4.336310 4.367621
v -6.285323 4.336310 -3.632379
v 1.714677 4.336310 -3.632379
vt -0.634990 1.634990
vt -0.634990 -0.634990
vt 1.634990 -0.634990
vt 1.634990 1.634990
vn 0.000000 1.000000 0.000000
usemtl None_Seamless_wall_white_paint_stucco_plaster_texture.jpg
s off
f 6/5/2 8/6/2 7/7/2
f 5/8/2 6/5/2 7/7/2
o Plane.002_Plane.004
v -6.285322 4.578190 -3.116740
v -6.285323 -3.421810 -3.116740
v 1.714677 4.578190 -3.116739
v 1.714677 -3.421810 -3.116739
vt -0.634990 1.634990
vt -0.634990 -0.634990
vt 1.634990 -0.634990
vt 1.634990 1.634990
vn 0.000000 0.000000 1.000000
usemtl None_Seamless_wall_white_paint_stucco_plaster_texture.jpg
s off
f 10/9/3 12/10/3 11/11/3
f 9/12/3 10/9/3 11/11/3
o Plane.003
v -6.285322 4.578190 4.291030
v -6.285323 -3.421810 4.291030
v 1.714677 4.578190 4.291030
v 1.714677 -3.421810 4.291030
vt -0.634990 1.634990
vt -0.634990 -0.634990
vt 1.634990 -0.634990
vt 1.634990 1.634990
vn -0.000000 0.000000 1.000000
usemtl None_Seamless_wall_white_paint_stucco_plaster_texture.jpg
s off
f 14/13/4 16/14/4 15/15/4
f 13/16/4 14/13/4 15/15/4
o Plane.001
v 1.620715 4.578190 4.564080
v 1.620715 -3.421810 4.564080
v 1.620715 4.578190 -3.435920
v 1.620715 -3.421810 -3.435920
vt -0.634990 1.634990
vt -0.634990 -0.634990
vt 1.634990 -0.634990
vt 1.634990 1.634990
vn 1.000000 -0.000000 0.000000
usemtl None_Seamless_wall_white_paint_stucco_plaster_texture.jpg
s off
f 18/17/5 20/18/5 19/19/5
f 17/20/5 18/17/5 19/19/5
o Plane
v -6.313253 4.578187 4.564080
v -6.313253 -3.421813 4.564080
v -6.313253 4.578187 -3.435920
v -6.313253 -3.421813 -3.435920
vt -0.634990 1.634990
vt -0.634990 -0.634990
vt 1.634990 -0.634990
vt 1.634990 1.634990
vn 1.000000 0.000000 0.000000
usemtl None_Seamless_wall_white_paint_stucco_plaster_texture.jpg
s off
f 22/21/6 24/22/6 23/23/6
f 21/24/6 22/21/6 23/23/6
